<svg id="OBJECTS" xmlns="http://www.w3.org/2000/svg" xmlns:xlink="http://www.w3.org/1999/xlink" viewBox="0 0 44.15 41.48"><defs><style>.cls-1{fill:url(#linear-gradient);}.cls-2{fill:url(#linear-gradient-2);}.cls-3{fill:url(#linear-gradient-3);}.cls-4{fill:#96e5f9;}</style><linearGradient id="linear-gradient" x1="328.21" y1="195.24" x2="370.81" y2="214.09" gradientUnits="userSpaceOnUse"><stop offset="0" stop-color="#0062d5"/><stop offset="1" stop-color="#00ffd5"/></linearGradient><linearGradient id="linear-gradient-2" x1="323.75" y1="205.31" x2="366.36" y2="224.15" xlink:href="#linear-gradient"/><linearGradient id="linear-gradient-3" x1="350.07" y1="196.76" x2="393.09" y2="211.1" gradientUnits="userSpaceOnUse"><stop offset="0" stop-color="#ff328b"/><stop offset="1" stop-color="#bc08ae"/></linearGradient></defs><title>10</title><path class="cls-1" d="M348,209.92a5.47,5.47,0,1,1,5.47-9.47,3.31,3.31,0,0,0,3.31-5.73,12.09,12.09,0,1,0-12.09,20.93,13,13,0,0,0,6.57,1.7,21.06,21.06,0,0,0,9.48-2.58L357.37,209C355.21,210.13,351.07,211.72,348,209.92Z" transform="translate(-338.61 -193.09)"/><path class="cls-2" d="M366.15,222.49a5.47,5.47,0,1,1-10.94,0,3.31,3.31,0,0,0-6.61,0,12.08,12.08,0,1,0,24.16,0c0-7-5.69-11.51-8.76-13.45l-3.31,5.73C362.71,216.08,366.15,218.85,366.15,222.49Z" transform="translate(-338.61 -193.09)"/><path class="cls-3" d="M381.14,199.14a12.08,12.08,0,0,0-16.5-4.42c-6.05,3.48-7.13,10.69-7.27,14.32H364c.13-2.41.82-6.79,3.94-8.59a5.47,5.47,0,1,1,5.47,9.47,3.31,3.31,0,0,0,3.31,5.73A12.1,12.1,0,0,0,381.14,199.14Z" transform="translate(-338.61 -193.09)"/><polygon class="cls-4" points="22.09 21.68 25.39 15.95 18.76 15.95 22.09 21.68"/></svg>